<svg width="333" height="343" viewBox="0 0 333 343" fill="none" xmlns="http://www.w3.org/2000/svg">
<rect x="6" y="185" width="325" height="71" rx="35.5" fill="#87501D"/>
<path d="M231.366 87.5545L181.61 145.668L94.9756 245.008L20.1282 145.668L231.366 87.5545Z" fill="#EAED57"/>
<path d="M6 138.424C6 122.656 12.5366 107.593 24.0533 96.8231V96.8231C27.2325 93.8499 30.742 91.251 34.5132 89.0772L35.5194 88.4971C42.3332 84.5694 49.7848 81.871 57.5336 80.5252L59.6108 80.1644C64.0722 79.3896 68.592 79 73.1202 79H172.306H258.387L268.617 80.3231C280.062 81.8033 291.17 85.2243 301.465 90.4391V90.4391C303.97 91.7081 306.325 93.2531 308.488 95.0453L308.995 95.4659C322.934 107.02 331 124.184 331 142.289V170.31C331 173.452 328.452 176 325.31 176H12C8.68629 176 6 173.314 6 170V138.424Z" fill="#D6BB5D"/>
<path d="M6 266.861L330.939 266.861L330.939 290.626C330.939 315.121 330.939 327.369 323.331 334.986C315.724 342.604 303.476 342.619 278.981 342.651L58.0611 342.933C33.5481 342.965 21.2915 342.98 13.6702 335.375C6.04887 327.77 6.03904 315.513 6.01937 291L6 266.861Z" fill="#D6BB5D"/>
<path d="M0.368477 3.33422C1.61771 3.64979 2.80853 3.88708 3.94096 4.04611C5.07338 4.20514 6.06919 4.32478 6.92837 4.40501C7.9437 4.52469 8.8811 4.56606 9.74057 4.5291C10.8343 4.53179 12.2017 4.43749 13.8428 4.2462C15.523 4.05501 17.2422 3.88345 19.0004 3.73152C20.7587 3.54052 22.4386 3.42746 24.0403 3.39233C25.6811 3.31823 27.009 3.41914 28.0239 3.69507C29.039 3.93194 30.0732 4.30558 31.1267 4.81598C32.2192 5.28741 33.2139 5.89532 34.1105 6.63971C35.0072 7.34504 35.7473 8.1867 36.3308 9.1647C36.9145 10.1036 37.2439 11.1787 37.319 12.3898C37.2762 13.9131 36.9212 15.338 36.2538 16.6645C35.7042 17.796 34.7833 18.9656 33.4913 20.1734C32.1994 21.3421 30.3417 22.236 27.9183 22.855C29.1288 23.0143 30.1633 23.2902 31.0217 23.683C31.9193 24.0367 32.68 24.4683 33.3037 24.9776C33.9666 25.448 34.4927 25.9766 34.8819 26.5635C35.3101 27.1505 35.6407 27.7373 35.8736 28.3238C36.4562 29.6924 36.7259 31.2165 36.6827 32.8961C36.443 35.083 35.9895 36.8202 35.3223 38.1076C34.6941 39.3951 33.969 40.3895 33.147 41.0906C32.325 41.7917 31.4839 42.2779 30.6239 42.5492C29.7638 42.8206 28.982 43.0335 28.2785 43.188C27.575 43.3425 26.7155 43.4185 25.6999 43.4161C24.6842 43.4136 23.5905 43.3913 22.4188 43.3494C21.2861 43.2685 20.1144 43.207 18.9036 43.165C17.6928 43.0839 16.5405 43.0811 15.4466 43.1565C14.5479 43.2324 13.454 43.3079 12.1647 43.3828C11.0708 43.4583 9.70337 43.5526 8.06247 43.6657C6.42165 43.7398 4.50736 43.8328 2.31958 43.9446C2.75003 43.6332 3.10245 43.2825 3.37685 42.8925C3.6904 42.4636 3.94522 42.0931 4.1413 41.7811C4.33757 41.3909 4.51426 41.0203 4.67137 40.6691C4.78933 40.3569 4.88909 39.4978 4.97067 38.0917C5.05225 36.6857 5.11496 35.0061 5.15882 33.0531C5.20277 31.061 5.22753 28.9322 5.23309 26.6665C5.27781 24.362 5.2637 22.1549 5.19075 20.0453C5.15696 17.8968 5.08349 16.0021 4.97033 14.3612C4.89633 12.6813 4.78211 11.4701 4.62768 10.7275C4.39532 9.90662 4.08489 9.06601 3.69637 8.20568C3.3857 7.46273 2.93844 6.66085 2.35462 5.80004C1.80985 4.93932 1.14781 4.11738 0.368477 3.33422ZM12.717 9.34111C12.7167 9.49736 12.7349 10.0248 12.7718 10.9233C12.8089 11.7046 12.845 12.9157 12.88 14.5564C12.9542 16.1581 13.0463 18.4435 13.1562 21.4125C14.1317 21.8446 15.0881 22.0813 16.0255 22.1227C16.963 22.125 17.803 22.088 18.5453 22.0117C19.405 21.8966 20.2258 21.7033 21.0077 21.4318C22.0634 21.0047 22.8855 20.3036 23.4738 19.3285C24.1012 18.3535 24.5139 17.3388 24.7118 16.2846C24.9488 15.1915 25.0099 14.176 24.895 13.2382C24.7802 12.2614 24.5281 11.5576 24.1385 11.127C23.3979 10.4611 22.4813 9.91196 21.3886 9.47958C20.452 9.12572 19.2611 8.88842 17.8161 8.76769C16.4103 8.60799 14.7106 8.79913 12.717 9.34111ZM12.3559 37.1137C13.7994 37.8595 15.0677 38.3509 16.1609 38.5879C17.2541 38.825 18.1717 38.9444 18.9139 38.9463C19.7733 38.9484 20.5158 38.833 21.1413 38.6002C21.8844 38.2504 22.6082 37.7834 23.3128 37.1992C24.0565 36.5761 24.6051 35.8547 24.9587 35.0353C25.3514 34.1769 25.51 33.2398 25.4344 32.224C25.3588 31.1691 24.9124 30.0156 24.0952 28.7636C23.3552 27.8634 22.4585 27.158 21.4051 26.6476C20.4686 26.2157 19.2779 25.9393 17.8329 25.8186C16.4269 25.6979 14.6878 26.0257 12.6156 26.8019L12.3559 37.1137ZM40.2926 18.3737C41.3078 18.5715 42.1863 18.7299 42.9282 18.8489C43.7092 18.9289 44.3731 19.0087 44.9198 19.0882C45.5446 19.1678 46.0913 19.2278 46.56 19.268C47.0286 19.3082 47.5754 19.3486 48.2003 19.3892C49.2549 19.4308 50.7393 19.4345 52.6534 19.4001C51.5208 19.3192 50.6216 19.61 49.956 20.2724C49.3294 20.8959 48.8589 21.6174 48.5444 22.4369C48.1514 23.4125 47.9337 24.5448 47.8915 25.8338C47.8092 27.5523 47.8444 29.1149 47.9972 30.5215C48.1892 31.8892 48.5183 33.0619 48.9847 34.0396C49.4902 34.9783 50.1525 35.6831 50.9717 36.1538C51.7909 36.5855 52.8453 36.7053 54.1348 36.5132C55.4244 36.321 56.402 35.8742 57.0678 35.1727C57.7728 34.4323 58.2828 33.5351 58.5979 32.4811C58.9131 31.3882 59.0919 30.1581 59.1343 28.791C59.2158 27.4241 59.2779 25.9984 59.3206 24.5141C59.3242 23.0298 59.3073 21.975 59.2697 21.35C59.2714 20.6859 59.2529 20.2562 59.2143 20.0607C59.1757 19.8653 59.1173 19.7871 59.0391 19.8259C58.961 19.8258 58.8636 19.7279 58.7469 19.5323C58.6691 19.3758 58.5523 19.2193 58.3964 19.0626C58.2796 18.9061 58.1238 18.7299 57.929 18.5342C57.7343 18.2993 57.52 18.0644 57.2862 17.8294C58.3017 17.871 59.2001 17.9123 59.9812 17.9533C60.8015 17.9553 61.4851 17.9765 62.0318 18.0169C62.6567 18.0575 63.2035 18.0979 63.6722 18.1381C64.1018 18.1782 64.668 18.2382 65.371 18.318C65.9567 18.3976 66.7182 18.4776 67.6555 18.558C68.5928 18.6385 69.7058 18.7584 70.9945 18.9178C70.0956 19.1109 69.3722 19.4021 68.8244 19.7914C68.2765 20.1807 67.8459 20.5702 67.5324 20.9601C67.1798 21.3889 66.9248 21.857 66.7673 22.3645C66.6485 23.0282 66.646 24.0438 66.7598 25.4113C66.8349 26.6224 67.0262 28.2831 67.3335 30.3932C67.6408 32.5033 68.1223 35.278 68.7779 38.7171L64.1423 41.4596L63.2239 33.6644C62.0864 35.5757 60.8718 37.0571 59.5802 38.1086C58.3277 39.1211 57.154 39.8604 56.0591 40.3265C54.7687 40.8702 53.5179 41.1796 52.3068 41.2548C50.7052 41.2509 49.3188 41.1498 48.1474 40.9516C47.0151 40.7145 46.0393 40.4191 45.2199 40.0655C44.4004 39.7119 43.7373 39.3197 43.2305 38.8888C42.7629 38.4189 42.4125 37.9492 42.1793 37.4799C41.6348 36.502 41.3449 35.2513 41.3096 33.7278C41.2744 32.1652 41.3368 30.6224 41.4968 29.0993C41.6568 27.5372 41.8361 26.1119 42.0346 24.8233C42.2331 23.5347 42.2938 22.6559 42.2169 22.187C42.1396 21.8352 42.0234 21.4443 41.8682 21.0143C41.7128 20.6623 41.5184 20.2712 41.2851 19.841C41.0519 19.3716 40.7211 18.8825 40.2926 18.3737ZM71.2913 17.3365C72.0334 17.3774 72.6975 17.3985 73.2834 17.4C73.9085 17.3624 74.4359 17.3247 74.8657 17.2867C75.3736 17.2488 75.8229 17.2109 76.2136 17.1728C76.7998 17.0961 77.4055 16.9999 78.0308 16.8843C78.5778 16.8075 79.1445 16.7112 79.7307 16.5955C80.3561 16.4408 80.962 16.2665 81.5484 16.0726C81.3126 16.658 81.116 17.1653 80.9587 17.5946C80.8014 18.0239 80.6833 18.3947 80.6044 18.707C80.4864 19.0583 80.4271 19.3511 80.4265 19.5855C80.3867 19.8588 80.3664 20.1908 80.3654 20.5814C80.3247 21.2454 80.3221 22.3196 80.3575 23.8041C82.3931 22.0512 84.0957 20.6882 85.4652 19.715C86.8739 18.7419 87.989 17.9829 88.8107 17.4381C89.7888 16.8155 90.5515 16.4072 91.0989 16.2132C92.5447 15.9824 93.8134 16.3175 94.905 17.2187C95.3728 17.6104 95.8207 18.1389 96.2488 18.804C96.6769 19.4301 97.0459 20.2708 97.3559 21.3263C97.6658 22.3817 97.897 23.6518 98.0496 25.1366C98.2023 26.5823 98.2176 28.3206 98.0954 30.3515C97.2749 30.4276 96.5325 30.5039 95.8683 30.5804C95.2431 30.657 94.7156 30.7143 94.2858 30.7523C93.7778 30.8292 93.309 30.8671 92.8793 30.8661L91.2968 31.038C90.7498 31.1148 90.066 31.1912 89.2455 31.2673C88.4641 31.3045 87.5069 31.3802 86.3738 31.4946C88.0177 30.1705 89.0752 29.0208 89.5464 28.0454C90.0567 27.031 90.2736 26.1917 90.1971 25.5274C90.1208 24.7851 89.7708 24.1397 89.1471 23.5913C88.406 23.1598 87.6056 23.0015 86.746 23.1166C86.0036 23.1929 85.1434 23.5228 84.1654 24.1064C83.1874 24.6899 82.1496 25.7811 81.0519 27.38C81.1239 29.8802 81.1969 31.9507 81.271 33.5915C81.3842 35.2324 81.4786 36.5608 81.5542 37.5766C81.6685 38.7487 81.7639 39.6669 81.8404 40.3312C81.9562 40.9174 82.189 41.543 82.5389 42.2079C82.811 42.7555 83.2002 43.3619 83.7063 44.0272C84.2125 44.6925 84.8749 45.3582 85.6936 46.0243C83.9751 45.9419 82.5688 45.9385 81.4749 46.0139C80.8107 46.0513 80.2247 46.089 79.7168 46.1268C79.1697 46.2036 78.5836 46.2802 77.9584 46.3568C77.4113 46.4336 76.7666 46.5102 76.0242 46.5865C75.3208 46.7019 74.5393 46.8172 73.6796 46.9323C73.9932 46.5034 74.2483 45.9962 74.4451 45.4107C74.6418 44.8643 74.7993 44.3374 74.9177 43.8298C75.0754 43.2443 75.1941 42.6391 75.2738 42.0143C75.3142 41.4675 75.3357 40.6473 75.3384 39.5535C75.3801 38.4599 75.3636 37.2293 75.2889 35.862C75.2532 34.4556 75.1982 33.0102 75.1237 31.5256C75.0493 30.002 74.9552 28.576 74.8412 27.2476C74.7273 25.9192 74.5934 24.7665 74.4396 23.7895C74.3249 22.7736 74.1899 22.0702 74.0346 21.6792C73.8404 21.2099 73.6072 20.7406 73.3349 20.2712C73.1016 19.8409 72.8097 19.391 72.4593 18.9214C72.109 18.4127 71.7197 17.8844 71.2913 17.3365ZM128.236 20.6989C128.121 19.9174 128.025 19.2726 127.948 18.7646C127.871 18.2176 127.794 17.7877 127.717 17.475C127.64 17.0842 127.582 16.7911 127.543 16.5957C127.466 16.4002 127.369 16.1851 127.252 15.9504C127.174 15.7549 127.038 15.5202 126.844 15.2463C126.688 14.9725 126.493 14.6595 126.26 14.3073C126.767 14.4648 127.275 14.5637 127.783 14.604C128.329 14.6445 128.837 14.6848 129.306 14.725C129.813 14.7653 130.341 14.7666 130.888 14.7289C131.435 14.7302 132.06 14.7122 132.763 14.6749C133.388 14.6373 134.13 14.6196 134.99 14.6217C135.888 14.5849 136.904 14.5288 138.037 14.4534C137.372 14.6081 136.805 14.8801 136.336 15.2696C135.905 15.6201 135.533 16.0098 135.22 16.4387C134.867 16.9066 134.573 17.4137 134.337 17.96C134.14 18.4673 134.021 19.4436 133.978 20.8888C133.936 22.295 133.931 23.9746 133.966 25.9279C134 27.842 134.034 29.9124 134.068 32.1391C134.14 34.3658 134.174 36.4948 134.169 38.526C134.203 40.5574 134.199 42.4129 134.156 44.0924C134.112 45.733 134.012 46.9437 133.854 47.7245C133.301 50.1841 132.28 52.1738 130.792 53.6936C129.304 55.2524 127.349 56.0875 124.927 56.1987C121.997 56.3087 119.673 56.0296 117.956 55.3613C116.278 54.6931 114.971 53.8696 114.036 52.8907C113.101 51.9509 112.4 50.9922 111.934 50.0145C111.468 49.0368 110.981 48.2934 110.475 47.7843C110.007 47.3535 109.539 46.9422 109.071 46.5504C108.642 46.2368 108.194 45.9232 107.726 45.6096C107.297 45.296 106.868 45.0997 106.438 45.0205C107.571 45.0623 108.587 45.0844 109.485 45.0866C110.383 45.0888 111.145 45.0906 111.77 45.0922C112.473 45.0939 113.098 45.0759 113.645 45.0382L115.52 45.0428L120.852 45.0559C120.071 45.2883 119.484 45.5408 119.093 45.8133C118.701 46.1248 118.427 46.4366 118.27 46.7488C118.113 47.0999 118.034 47.4513 118.033 47.8029C118.187 48.7408 118.693 49.4256 119.552 49.8574C120.41 50.2892 121.581 50.546 123.065 50.6277C124.51 50.7094 125.507 50.6728 126.054 50.5179C126.601 50.402 127.031 50.1687 127.345 49.8179C127.972 48.882 128.502 47.6723 128.936 46.189C129.251 44.9398 129.47 43.3192 129.592 41.3273C129.753 39.2965 129.584 36.8156 129.083 33.8846C127.829 35.6003 126.38 36.8858 124.738 37.7412C123.095 38.5965 121.531 39.2177 120.045 39.6047C118.287 40.03 116.509 40.2405 114.712 40.2361C109.986 40.0292 106.453 38.9268 104.114 36.9288C101.776 34.9309 100.708 32.2525 100.912 28.8936C101.033 27.2142 101.545 25.5358 102.447 23.8583C103.389 22.1809 104.604 20.68 106.091 19.3555C107.618 18.0311 109.359 16.9807 111.314 16.2043C113.269 15.4278 115.301 15.1008 117.41 15.2231C119.011 15.3833 120.514 15.68 121.92 16.1131C123.129 16.5067 124.32 17.0565 125.49 17.7625C126.699 18.4686 127.614 19.4474 128.236 20.6989ZM109.589 26.5126C109.351 28.0354 109.445 29.4614 109.872 30.7906C110.337 32.1199 110.979 33.2738 111.797 34.2524C112.615 35.1919 113.531 35.9363 114.545 36.4857C115.56 36.996 116.516 37.2327 117.415 37.1959C119.29 37.1614 120.913 36.3255 122.284 34.6883C123.655 33.0119 124.482 30.514 124.763 27.1943C124.885 25.554 124.673 24.1472 124.129 22.974C123.624 21.7618 122.982 20.7837 122.203 20.0396C121.423 19.2955 120.604 18.7661 119.746 18.4515C118.887 18.1369 118.204 17.9985 117.696 18.0363C116.993 18.1127 116.211 18.3257 115.351 18.6751C114.53 18.9856 113.728 19.4719 112.945 20.134C112.162 20.7571 111.457 21.5952 110.829 22.6484C110.241 23.7016 109.827 24.9897 109.589 26.5126ZM153.745 36.1718C154.839 36.1744 155.855 36.0597 156.793 35.8277C157.575 35.6343 158.318 35.3236 159.022 34.8956C159.765 34.4287 160.255 33.7463 160.492 32.8485C161.273 33.0066 161.936 33.145 162.483 33.2635C163.03 33.343 163.498 33.4222 163.889 33.5013C164.318 33.6196 164.689 33.6986 165.001 33.7384C165.314 33.8173 165.685 33.8964 166.114 33.9755C166.505 34.0546 166.973 34.1534 167.52 34.272C168.105 34.3515 168.789 34.4704 169.57 34.6286C168.984 34.549 168.378 34.6061 167.753 34.7999C167.166 34.9938 166.599 35.2072 166.052 35.4402C165.426 35.7121 164.839 36.0427 164.292 36.432C163.939 36.6655 163.528 37.0161 163.059 37.4837C162.628 37.9514 162.002 38.3991 161.18 38.8267C160.359 39.2544 159.264 39.6228 157.896 39.932C156.568 40.2021 154.849 40.2956 152.739 40.2123C150.2 40.1279 148.073 39.6735 146.356 38.8489C144.639 37.9853 143.255 36.9468 142.203 35.7333C141.152 34.4807 140.393 33.1312 139.928 31.6847C139.463 30.2382 139.212 28.89 139.176 27.6399C139.14 26.3898 139.515 25.0821 140.299 23.7168C141.084 22.3516 142.181 21.1043 143.59 19.9749C145.038 18.8456 146.778 17.9319 148.811 17.2338C150.844 16.4966 153.072 16.131 155.494 16.1369C156.9 16.1404 158.189 16.3193 159.36 16.6738C160.57 16.9892 161.663 17.4216 162.638 17.9709C163.652 18.5202 164.529 19.1474 165.27 19.8523C166.01 20.5182 166.634 21.2033 167.14 21.9077C167.646 22.6511 168.074 23.4334 168.423 24.2546C168.734 24.9585 168.986 25.7599 169.179 26.6588C169.372 27.5577 169.428 28.4759 169.348 29.4132C166.379 29.484 163.977 29.5367 162.14 29.5712C160.344 29.6059 158.937 29.622 157.922 29.6195L155.285 29.613L153.293 29.6081C152.59 29.6064 151.672 29.6237 150.539 29.66C149.406 29.6962 148.019 29.7514 146.378 29.8255C146.57 31.3885 147.055 32.6006 147.834 33.4619C148.652 34.2842 149.51 34.9114 150.408 35.3432C151.422 35.8145 152.535 36.0907 153.745 36.1718ZM148.498 25.612C149.748 25.6932 150.783 25.7543 151.603 25.7954C152.462 25.8365 153.165 25.8773 153.712 25.9177C154.298 25.9582 154.766 25.9789 155.118 25.9798L156.583 25.9834C157.559 25.9858 159.376 25.9316 162.033 25.821C161.92 24.1019 161.552 22.7924 160.929 21.8925C160.345 20.9926 159.722 20.327 159.059 19.8957C158.279 19.425 157.42 19.1495 156.483 19.069C153.944 19.1019 152.048 19.6246 150.795 20.6371C149.582 21.6498 148.816 23.3081 148.498 25.612ZM171.135 17.5816C171.877 17.6225 172.541 17.6436 173.127 17.6451C173.752 17.6075 174.279 17.5698 174.709 17.5317C175.217 17.4939 175.666 17.456 176.057 17.4179C176.643 17.3412 177.249 17.245 177.874 17.1294C178.421 17.0526 178.988 16.9563 179.574 16.8406C180.2 16.6858 180.805 16.5116 181.392 16.3177C181.156 16.903 180.959 17.4104 180.802 17.8397C180.645 18.269 180.527 18.6398 180.448 18.9521C180.33 19.3034 180.271 19.5962 180.27 19.8306C180.23 20.1039 180.21 20.4359 180.209 20.8265C180.168 21.4905 180.166 22.5647 180.201 24.0492C182.237 22.2963 183.939 20.9333 185.309 19.9601C186.717 18.987 187.832 18.228 188.654 17.6832C189.632 17.0606 190.395 16.6523 190.942 16.4583C192.388 16.2275 193.657 16.5626 194.748 17.4638C195.216 17.8555 195.664 18.384 196.092 19.0491C196.52 19.6751 196.889 20.5159 197.199 21.5713C197.509 22.6268 197.74 23.8969 197.893 25.3817C198.046 26.8273 198.061 28.5657 197.939 30.5966C197.118 30.6727 196.376 30.749 195.712 30.8255C195.087 30.9021 194.559 30.9594 194.129 30.9974C193.621 31.0743 193.152 31.1122 192.723 31.1112L191.14 31.2831C190.593 31.3598 189.909 31.4363 189.089 31.5124C188.308 31.5495 187.35 31.6253 186.217 31.7397C187.861 30.4156 188.919 29.2659 189.39 28.2905C189.9 27.2761 190.117 26.4368 190.041 25.7725C189.964 25.0302 189.614 24.3848 188.991 23.8364C188.249 23.4048 187.449 23.2466 186.589 23.3617C185.847 23.438 184.987 23.7679 184.009 24.3515C183.031 24.935 181.993 26.0262 180.895 27.6251C180.967 30.1253 181.04 32.1958 181.114 33.8366C181.228 35.4775 181.322 36.8059 181.398 37.8217C181.512 38.9938 181.607 39.912 181.684 40.5763C181.8 41.1625 182.032 41.7881 182.382 42.453C182.654 43.0005 183.044 43.607 183.55 44.2723C184.056 44.9376 184.718 45.6033 185.537 46.2694C183.819 46.187 182.412 46.1836 181.318 46.259C180.654 46.2964 180.068 46.3341 179.56 46.3719C179.013 46.4487 178.427 46.5253 177.802 46.6019C177.255 46.6787 176.61 46.7553 175.868 46.8316C175.164 46.947 174.383 47.0623 173.523 47.1774C173.837 46.7484 174.092 46.2413 174.289 45.6558C174.485 45.1094 174.643 44.5824 174.761 44.0749C174.919 43.4894 175.038 42.8842 175.117 42.2594C175.158 41.7126 175.179 40.8923 175.182 39.7986C175.224 38.705 175.207 37.4744 175.132 36.1071C175.097 34.7007 175.042 33.2553 174.967 31.7707C174.893 30.2471 174.799 28.8211 174.685 27.4927C174.571 26.1642 174.437 25.0116 174.283 24.0346C174.168 23.0187 174.033 22.3153 173.878 21.9243C173.684 21.455 173.451 20.9857 173.178 20.5163C172.945 20.086 172.653 19.6361 172.303 19.1665C171.952 18.6578 171.563 18.1295 171.135 17.5816ZM200.934 3.88515C202.262 4.08372 203.433 4.22331 204.449 4.30393C205.503 4.38465 206.382 4.46493 207.085 4.54478C207.905 4.62492 208.608 4.66571 209.194 4.66714L211.479 4.67275C213.003 4.67649 215.522 4.62408 219.038 4.51553C218.178 4.78685 217.454 5.1757 216.867 5.68208C216.319 6.18854 215.869 6.71478 215.516 7.26079C215.085 7.88474 214.77 8.5285 214.573 9.19208C214.337 10.0118 214.12 11.105 213.921 12.4717C213.723 13.6822 213.523 15.2637 213.323 17.2164C213.162 19.1691 213 21.6101 212.837 24.5394C214.521 22.6295 215.99 20.9339 217.244 19.4526C218.536 17.9714 219.653 16.6655 220.593 15.535C221.533 14.4045 222.317 13.4299 222.944 12.6111C223.61 11.7924 224.159 11.0906 224.59 10.5057C225.609 9.18011 226.197 8.28311 226.354 7.81475C226.394 7.5414 226.375 7.20933 226.298 6.81851C226.221 6.50582 226.104 6.13444 225.949 5.70437C225.794 5.23524 225.561 4.72685 225.25 4.17921C226.812 4.26117 228.14 4.32303 229.234 4.36477C230.367 4.40662 231.304 4.44798 232.046 4.48886C232.905 4.53004 233.608 4.55129 234.155 4.55263L236.616 4.55868C237.515 4.56088 238.686 4.56376 240.132 4.56731C241.577 4.53179 243.394 4.49719 245.581 4.46349C244.135 4.81151 242.767 5.2769 241.476 5.85967C240.186 6.44244 239.032 7.00602 238.015 7.5504C236.842 8.21158 235.746 8.89249 234.729 9.59312C233.711 10.3719 232.576 11.2871 231.324 12.3387C230.267 13.2345 229.034 14.3448 227.624 15.6694C226.215 16.9551 224.687 18.4552 223.043 20.1699C224.792 23.6117 226.309 26.4475 227.592 28.6772C228.915 30.868 230.024 32.6285 230.919 33.9588C231.931 35.5238 232.787 36.7173 233.488 37.5394C234.19 38.2833 235.008 39.047 235.944 39.8306C236.723 40.4965 237.698 41.2411 238.868 42.0643C240.038 42.8484 241.384 43.6135 242.905 44.3594L226.204 45.1387C226.439 44.8268 226.577 44.456 226.617 44.0264C226.696 43.5579 226.736 43.1283 226.737 42.7377C226.738 42.308 226.7 41.8391 226.624 41.3311C226.469 40.7057 226.061 39.6891 225.401 38.2812C224.857 37.069 224.021 35.3677 222.894 33.1774C221.766 30.9481 220.211 28.0146 218.228 24.3769L213.234 29.5795C213.036 30.829 212.936 31.9616 212.933 32.9772C212.931 33.9928 212.968 34.8327 213.044 35.497C213.159 36.3176 213.314 37.0211 213.508 37.6075C213.741 38.194 214.071 38.8589 214.499 39.6021C214.849 40.2671 215.316 41.0495 215.899 41.9493C216.483 42.8492 217.223 43.8471 218.119 44.9431C217.221 44.7065 216.323 44.548 215.424 44.4677C214.526 44.3483 213.706 44.2682 212.964 44.2273C212.105 44.1861 211.284 44.2036 210.503 44.2799C209.682 44.356 208.725 44.4708 207.631 44.6244C206.693 44.7783 205.54 44.9708 204.173 45.2018C202.805 45.4328 201.242 45.722 199.483 46.0692C200.344 45.5635 201.028 45.0183 201.538 44.4336C202.047 43.8489 202.459 43.2835 202.772 42.7374C203.125 42.1133 203.361 41.5084 203.48 40.9228C203.559 40.4151 203.621 39.3215 203.664 37.6419C203.746 35.9625 203.79 34.0094 203.795 31.7829C203.84 29.5174 203.846 27.1346 203.813 24.6345C203.78 22.1344 203.747 19.7905 203.713 17.6029C203.679 15.4154 203.625 13.5598 203.551 12.0361C203.516 10.4735 203.479 9.51641 203.441 9.16475C203.325 8.61759 203.17 8.03127 202.976 7.4058C202.782 6.85844 202.51 6.29137 202.16 5.70457C201.849 5.0788 201.441 4.47233 200.934 3.88515ZM252.3 36.4137C253.393 36.4164 254.409 36.3017 255.347 36.0696C256.129 35.8762 256.872 35.5655 257.576 35.1376C258.32 34.6706 258.81 33.9882 259.046 33.0904C259.827 33.2486 260.491 33.3869 261.037 33.5054C261.584 33.5849 262.053 33.6642 262.443 33.7433C262.872 33.8615 263.243 33.9405 263.556 33.9804C263.868 34.0593 264.239 34.1383 264.668 34.2175C265.059 34.2966 265.527 34.3954 266.074 34.5139C266.66 34.5935 267.343 34.7123 268.124 34.8705C267.538 34.7909 266.933 34.848 266.307 35.0418C265.721 35.2357 265.154 35.4491 264.606 35.6822C263.981 35.9541 263.394 36.2847 262.846 36.6739C262.494 36.9075 262.083 37.258 261.613 37.7256C261.182 38.1933 260.556 38.641 259.735 39.0687C258.913 39.4963 257.819 39.8647 256.451 40.1739C255.122 40.4441 253.403 40.5375 251.294 40.4542C248.755 40.3698 246.627 39.9154 244.91 39.0909C243.194 38.2273 241.81 37.1887 240.758 35.9752C239.706 34.7226 238.948 33.3731 238.483 31.9266C238.017 30.4802 237.767 29.1319 237.731 27.8818C237.695 26.6317 238.069 25.324 238.854 23.9588C239.638 22.5935 240.735 21.3462 242.144 20.2168C243.592 19.0876 245.333 18.1739 247.366 17.4757C249.399 16.7385 251.626 16.3729 254.048 16.3788C255.454 16.3823 256.743 16.5612 257.914 16.9157C259.124 17.2312 260.217 17.6635 261.192 18.2128C262.206 18.7622 263.084 19.3893 263.824 20.0943C264.565 20.7601 265.188 21.4453 265.694 22.1496C266.2 22.8931 266.628 23.6754 266.977 24.4965C267.288 25.2004 267.54 26.0018 267.733 26.9008C267.926 27.7997 267.983 28.7178 267.902 29.6551C264.933 29.7259 262.531 29.7786 260.695 29.8132C258.898 29.8478 257.492 29.8639 256.476 29.8614L253.839 29.8549L251.847 29.85C251.144 29.8483 250.226 29.8656 249.093 29.9019C247.96 29.9382 246.573 29.9934 244.932 30.0674C245.124 31.6304 245.609 32.8426 246.388 33.7038C247.207 34.5262 248.065 35.1533 248.962 35.5852C249.976 36.0564 251.089 36.3326 252.3 36.4137ZM247.052 25.8539C248.302 25.9351 249.337 25.9962 250.157 26.0373C251.017 26.0785 251.72 26.1193 252.266 26.1597C252.852 26.2002 253.321 26.2208 253.672 26.2217L255.137 26.2253C256.114 26.2277 257.93 26.1736 260.587 26.0629C260.474 24.3439 260.106 23.0344 259.483 22.1344C258.9 21.2345 258.276 20.5689 257.613 20.1376C256.833 19.6669 255.974 19.3914 255.037 19.311C252.498 19.3438 250.602 19.8665 249.35 20.879C248.136 21.8917 247.37 23.55 247.052 25.8539ZM303.011 25.1709C302.543 25.0917 301.957 25.0316 301.254 24.9908C300.59 24.9501 299.945 24.929 299.32 24.9275C298.617 24.9258 297.875 24.9435 297.094 24.9806C296.273 25.0177 295.453 25.0547 294.632 25.0918C293.929 25.1291 293.128 25.1857 292.23 25.2617C291.37 25.2986 290.53 25.3551 289.71 25.4313C290.023 25.2758 290.296 25.0616 290.532 24.7887C290.806 24.516 291.041 24.2431 291.237 23.9702C291.433 23.6581 291.609 23.3265 291.766 22.9754C291.963 22.3899 291.945 21.6867 291.713 20.8658C291.481 20.0059 291.053 19.2236 290.43 18.5189C289.846 17.8144 289.085 17.2656 288.149 16.8727C287.251 16.4408 286.255 16.3407 285.161 16.5724C283.989 16.843 282.933 17.2505 281.994 17.7951C281.094 18.3398 280.331 19.0996 279.703 20.0746C279.115 21.0107 278.682 22.1815 278.406 23.5871C278.168 24.9537 278.105 26.5942 278.218 28.5085C278.368 30.8917 278.754 32.7872 279.376 34.195C279.997 35.6028 280.756 36.6593 281.653 37.3646C282.55 38.07 283.525 38.5021 284.579 38.6609C285.673 38.7808 286.747 38.7834 287.802 38.6688C288.545 38.5144 289.229 38.184 289.855 37.6777C290.364 37.2493 290.834 36.6255 291.266 35.8062C291.698 34.9869 291.896 33.8546 291.86 32.4092L299.01 32.1338C298.184 34.4365 297.183 36.2699 296.008 37.6343C294.833 38.9595 293.697 39.9919 292.602 40.7314C291.311 41.5876 290.02 42.1703 288.73 42.4797C287.128 42.7492 285.702 42.8629 284.452 42.8207C283.202 42.7396 282.07 42.5415 281.055 42.2265C280.04 41.9115 279.104 41.5186 278.245 41.0477C277.387 40.5768 276.568 40.067 275.788 39.5182C275.281 39.1654 274.716 38.5781 274.093 37.7562C273.47 36.9344 272.887 35.9564 272.343 34.8222C271.799 33.649 271.353 32.3589 271.005 30.9518C270.657 29.5447 270.523 28.099 270.605 26.6148C270.687 25.0916 271.042 23.569 271.671 22.0471C272.3 20.5252 273.299 19.0628 274.67 17.6599C276.746 15.5557 278.956 14.1939 281.301 13.5746C283.686 12.9164 285.932 12.7462 288.041 13.0638C290.149 13.3425 292.023 13.9525 293.661 14.894C295.3 15.8356 296.449 16.854 297.111 17.9494C297.772 19.0448 298.258 19.8858 298.569 20.4725C298.92 21.0203 299.173 21.4506 299.328 21.7634C299.523 22.0374 299.678 22.2526 299.795 22.4091C299.951 22.5267 300.166 22.703 300.438 22.9381C300.633 23.1338 300.867 23.3493 301.14 23.5843C301.374 23.7802 301.647 24.0152 301.959 24.2894C302.27 24.5636 302.621 24.8575 303.011 25.1709ZM301.897 1.55485C302.795 1.71331 303.615 1.83251 304.357 1.91245C305.099 1.95334 305.724 1.99393 306.232 2.03424C306.818 2.07474 307.326 2.09552 307.755 2.09658C308.341 2.05895 309.025 2.00204 309.806 1.92583C310.471 1.84934 311.272 1.75365 312.21 1.63876C313.186 1.52397 314.3 1.37045 315.55 1.17821C314.964 1.48927 314.475 1.80057 314.083 2.11211C313.692 2.38459 313.379 2.67679 313.144 2.98871C312.869 3.3396 312.654 3.67111 312.497 3.98322C312.3 4.49055 312.083 5.54471 311.844 7.14569C311.607 8.5123 311.309 10.5428 310.951 13.2373C310.631 15.9318 310.212 19.5831 309.693 24.1912C311.103 22.7884 312.434 21.737 313.685 21.037C314.976 20.298 316.11 19.7734 317.088 19.4633C318.221 19.1145 319.276 18.9413 320.253 18.9437C321.464 19.0639 322.693 19.4575 323.942 20.1246C325.229 20.7528 326.419 21.4979 327.51 22.36C328.641 23.2221 329.615 24.1425 330.433 25.1211C331.29 26.0997 331.894 26.9606 332.243 27.7036C332.476 28.212 332.592 28.8764 332.59 29.6967C332.588 30.4779 332.508 31.3371 332.349 32.2742C332.191 33.2113 331.973 34.1678 331.698 35.1437C331.422 36.1196 331.146 37.0369 330.871 37.8956C330.634 38.7544 330.417 39.5156 330.22 40.1792C330.024 40.8037 329.905 41.2526 329.866 41.526C329.786 42.1117 329.824 42.6782 329.979 43.2255C330.095 43.6945 330.328 44.2029 330.678 44.7506C331.028 45.2593 331.555 45.6903 332.257 46.0436C331.71 45.9641 331.124 45.9041 330.499 45.8635C329.914 45.7839 329.347 45.7239 328.801 45.6835C328.176 45.6429 327.551 45.6219 326.926 45.6203L324.816 45.6151C324.152 45.6135 323.391 45.6312 322.531 45.6681C321.672 45.666 320.734 45.6833 319.719 45.7198C320.266 45.5259 320.735 45.2731 321.127 44.9616C321.518 44.611 321.851 44.2797 322.125 43.9679C322.439 43.6171 322.713 43.2467 322.948 42.8566C323.105 42.5445 323.302 41.9591 323.538 41.1003C323.775 40.2024 323.992 39.1873 324.19 38.055C324.389 36.8836 324.528 35.6535 324.61 34.3646C324.73 33.0758 324.753 31.8454 324.677 30.6734C324.641 29.4623 324.468 28.3877 324.158 27.4494C323.887 26.5112 323.459 25.8266 322.874 25.3955C321.119 24.063 319.519 23.4146 318.074 23.4501C316.668 23.4466 315.319 24.0097 314.027 25.1394C313.557 25.5679 313.107 25.9965 312.676 26.4251C312.284 26.8148 311.854 27.2825 311.383 27.8282C310.914 28.3349 310.483 28.8612 310.091 29.4071C310.089 29.993 310.107 30.6376 310.144 31.3408C310.182 32.044 310.219 32.7277 310.257 33.3919C310.294 34.1342 310.351 34.8765 310.427 35.6189C310.502 36.7519 310.617 37.8654 310.77 38.9596C310.885 39.8973 311.039 40.9329 311.231 42.0662C311.424 43.1604 311.675 44.1571 311.986 45.0563C311.478 44.9769 310.951 44.9561 310.404 44.9938C309.857 44.9925 309.33 44.9912 308.822 44.9899C308.236 45.0276 307.669 45.0457 307.122 45.0444C306.615 45.0822 306.087 45.1395 305.54 45.2163C305.071 45.2932 304.563 45.3701 304.016 45.4469C303.469 45.4846 302.942 45.5615 302.433 45.6774C302.904 44.7801 303.297 43.9022 303.612 43.0436C303.926 42.1459 304.182 41.3653 304.379 40.7017C304.616 39.921 304.813 39.1598 304.971 38.418C305.089 37.8323 305.17 36.7192 305.213 35.0787C305.296 33.3992 305.359 31.4853 305.403 29.337C305.448 27.1496 305.473 24.8449 305.479 22.4231C305.485 20.0012 305.471 17.6965 305.437 15.5089C305.403 13.3213 305.33 11.4071 305.217 9.76615C305.143 8.12534 305.048 6.99229 304.932 6.367C304.778 5.74162 304.564 5.1161 304.292 4.49043C304.059 3.94298 303.748 3.41487 303.359 2.9061C302.969 2.35827 302.482 1.90785 301.897 1.55485Z" fill="black"/>
<path d="M46.3278 113.233C46.5339 113.233 46.7362 113.198 46.9292 113.131L49.3239 112.296C51.1408 111.662 52.5932 114.592 51.162 116.004V116.004C50.9308 116.232 50.7609 116.536 50.67 116.884L49.5763 121.078C48.7084 124.405 45.4219 125.658 42.7684 123.673V123.673C38.6043 120.558 39.8602 113.238 44.5593 113.234L46.3278 113.233Z" fill="white"/>
<path d="M87.8725 98.3964C88.0091 98.2073 88.1226 98.0015 88.2097 97.7847L89.207 95.302C90.0531 93.1956 92.8762 93.6231 92.7468 95.838V95.838C92.7277 96.166 92.7841 96.4853 92.9111 96.7678L94.7739 100.912C96.0965 103.854 94.4719 107.655 91.3878 108.834V108.834C86.598 110.666 83.0725 105.037 86.2532 100.637L87.8725 98.3964Z" fill="white"/>
<path d="M76.1652 140.969C76.3019 140.78 76.4153 140.574 76.5024 140.357L77.4997 137.875C78.3458 135.768 81.1689 136.196 81.0396 138.411V138.411C81.0204 138.739 81.0768 139.058 81.2038 139.34L83.0666 143.484C84.3892 146.426 82.7646 150.228 79.6805 151.407V151.407C74.8907 153.238 71.3653 147.61 74.546 143.209L76.1652 140.969Z" fill="white"/>
<path d="M127.677 100.312C127.814 100.123 127.928 99.9171 128.015 99.7004L129.012 97.2177C129.858 95.1113 132.681 95.5388 132.552 97.7537V97.7537C132.533 98.0816 132.589 98.401 132.716 98.6834L134.579 102.827C135.901 105.769 134.277 109.571 131.193 110.75V110.75C126.403 112.581 122.877 106.953 126.058 102.552L127.677 100.312Z" fill="white"/>
<path d="M119.536 140.547C119.555 140.799 119.602 141.051 119.676 141.296L120.887 145.316C121.537 147.473 119.242 148.794 117.913 147.027V147.027C117.634 146.656 117.263 146.392 116.861 146.278L114.305 145.553C111.311 144.703 109.511 140.905 110.658 137.859L110.757 137.596C112.573 132.777 119.108 134.754 119.514 140.246L119.536 140.547Z" fill="white"/>
<path d="M158.17 142.025C158.189 142.277 158.236 142.529 158.31 142.775L159.521 146.795C160.171 148.952 157.876 150.272 156.547 148.505V148.505C156.268 148.134 155.897 147.87 155.495 147.756L152.94 147.031C149.946 146.182 148.145 142.383 149.292 139.338L149.391 139.075C151.208 134.255 157.743 136.233 158.148 141.724L158.17 142.025Z" fill="white"/>
<path d="M169.292 108.76C169.311 109.013 169.358 109.265 169.432 109.51L170.643 113.53C171.293 115.687 168.998 117.007 167.669 115.241V115.241C167.39 114.87 167.019 114.605 166.617 114.492L164.061 113.766C161.067 112.917 159.267 109.118 160.414 106.073L160.513 105.81C162.33 100.991 168.865 102.968 169.27 108.46L169.292 108.76Z" fill="white"/>
<path d="M199.132 128.685C199.075 128.935 199.045 129.193 199.043 129.452L199.017 133.002C198.999 135.368 196.407 136.029 195.704 133.848V133.848C195.578 133.458 195.364 133.125 195.088 132.889L192.454 130.643C190.059 128.6 189.812 124.269 191.946 121.741V121.741C195.329 117.732 200.701 121.793 199.425 127.395L199.132 128.685Z" fill="white"/>
<path d="M224.272 111.256C224.231 111.51 224.219 111.771 224.234 112.031L224.452 115.746C224.59 118.097 222.061 118.91 221.208 116.79V116.79C221.05 116.396 220.801 116.069 220.494 115.852L217.836 113.972C215.277 112.161 214.666 107.873 216.584 105.187V105.187C219.636 100.914 225.322 104.598 224.427 110.268L224.272 111.256Z" fill="white"/>
<path d="M223.137 150.774C223.366 150.779 223.591 150.746 223.806 150.676L226.481 149.803C228.509 149.142 230.059 152.462 228.443 154.006V154.006C228.181 154.256 227.987 154.592 227.879 154.98L226.581 159.647C225.55 163.352 221.88 164.669 218.978 162.375V162.375C214.424 158.776 215.968 150.608 221.18 150.728L223.137 150.774Z" fill="white"/>
<path d="M274.792 136.659C274.802 136.955 274.844 137.253 274.918 137.546L276.293 143.046C276.926 145.575 274.193 146.935 272.727 144.821V144.821C272.382 144.324 271.9 143.976 271.378 143.845L268.943 143.237C265.418 142.357 263.24 137.907 264.587 134.334L265.025 133.173C267.093 127.685 274.566 130.144 274.782 136.384L274.792 136.659Z" fill="white"/>
<path d="M262.958 108.971C262.798 109.124 262.658 109.297 262.543 109.487L261.27 111.588C260.139 113.455 257.362 112.449 257.803 110.332V110.332C257.866 110.03 257.857 109.72 257.777 109.429L256.507 104.791C255.645 101.643 257.847 98.3359 261.107 97.882V97.882C266.147 97.1804 268.859 103.341 265.093 106.934L262.958 108.971Z" fill="white"/>
</svg>
